# xmcd CD database file
#
# Track frame offsets:
#	150
#	12764
#	30067
#	45067
#	65159
#	79880
#	92630
#	110160
#	121342
#	135535
#	148863
#	162689
#	177083
#	189706
#	207421
#
# Disc length: 3011 seconds
#
# Revision: 0
# Processed by: cddbd v1.5.2PL0 Copyright (c) Steve Scherf et al.
# Submitted via: CDex 1.79
#
DISCID=cd0bc10f
DTITLE=Jazz Divas and The City - Jazz Divas and The City [CD3)
DYEAR=2015
DGENRE=Jazz
TTITLE0=DIAHANN CARROLL SUMMERTIME
TTITLE1=CLEO LAINE UNFORGETTABLE
TTITLE2=JANE FROMAN BLUE MOON
TTITLE3=DINAH WASHINGTON I COULD WRITE A BOOK
TTITLE4=CONNEE BOSWELL HOW DEEP IS THE OCEAN
TTITLE5=DAKOTA STATION THE SONG IS ENDED
TTITLE6=EILEEN FARRELL I GOT IT BAD (AND THAT AIN'T GOOD)
TTITLE7=ETTA JAMES DON'T GET AROUND MUCH ANYMORE
TTITLE8=DIAHANN CARROLL THERE'LL BE SOME CHANGES MADE
TTITLE9=HELEN FORREST I DONN'T WANT TO WALK WITHOUT YOU, BABY
TTITLE10=CHRS CONNOR TRY A LITTLE TENDERNESS
TTITLE11=KATE SMITH THEY CAN'T TAKE THAT AWAY FROM ME
TTITLE12=MARGARET WHITING THEY DIDN'T BELIVE ME
TTITLE13=DORIS DAY MOOD INDIGO
TTITLE14=EYDIE GORME MY FUNNY VALENTINE
EXTD=YEAR: 2015
EXTT0=
EXTT1=
EXTT2=
EXTT3=
EXTT4=
EXTT5=
EXTT6=
EXTT7=
EXTT8=
EXTT9=
EXTT10=
EXTT11=
EXTT12=
EXTT13=
EXTT14=
PLAYORDER=
